<?xml version="1.0" encoding="UTF-8" standalone="no"?>
<!-- Generator: Adobe Illustrator 19.0.0, SVG Export Plug-In . SVG Version: 6.00 Build 0)  -->

<svg
   xmlns:dc="http://purl.org/dc/elements/1.1/"
   xmlns:cc="http://creativecommons.org/ns#"
   xmlns:rdf="http://www.w3.org/1999/02/22-rdf-syntax-ns#"
   xmlns:svg="http://www.w3.org/2000/svg"
   xmlns="http://www.w3.org/2000/svg"
   xmlns:xlink="http://www.w3.org/1999/xlink"
   xmlns:sodipodi="http://sodipodi.sourceforge.net/DTD/sodipodi-0.dtd"
   xmlns:inkscape="http://www.inkscape.org/namespaces/inkscape"
   version="1.1"
   id="Layer_1"
   x="0px"
   y="0px"
   viewBox="152.5 8.2 335 462.8"
   style="enable-background:new 152.5 8.2 335 462.8;"
   xml:space="preserve"
   inkscape:version="0.48.5 r10040"
   width="100%"
   height="100%"
   sodipodi:docname="kq-outline.svg"><metadata
     id="metadata30"><rdf:RDF><cc:Work
         rdf:about=""><dc:format>image/svg+xml</dc:format><dc:type
           rdf:resource="http://purl.org/dc/dcmitype/StillImage" /><dc:title></dc:title></cc:Work></rdf:RDF></metadata><defs
     id="defs28" /><sodipodi:namedview
     pagecolor="#ffffff"
     bordercolor="#666666"
     borderopacity="1"
     objecttolerance="10"
     gridtolerance="10"
     guidetolerance="10"
     inkscape:pageopacity="0"
     inkscape:pageshadow="2"
     inkscape:window-width="1325"
     inkscape:window-height="701"
     id="namedview26"
     showgrid="false"
     inkscape:zoom="0.72116335"
     inkscape:cx="-61.637317"
     inkscape:cy="269.30833"
     inkscape:window-x="0"
     inkscape:window-y="27"
     inkscape:window-maximized="0"
     inkscape:current-layer="Layer_1" /><style
     type="text/css"
     id="style3">
	.st0{fill:none;stroke:#DDDFE6;stroke-width:5;stroke-linecap:round;stroke-linejoin:round;stroke-miterlimit:10;}
	.st1{fill:none;stroke:#DDDFE6;stroke-width:8;stroke-linecap:round;stroke-linejoin:round;stroke-miterlimit:10;}
	.st2{fill:#DDDFE6;}
	.st3{fill:none;stroke:#DDDFE6;stroke-width:6;stroke-linecap:round;stroke-linejoin:round;stroke-miterlimit:10;}
</style><g
     id="Layer_2"
     style="stroke:#f1404b;stroke-opacity:1"><image
       sodipodi:absref="/home/kaku/projects/portfolio/public/images/9545DD19.png"
       xlink:href="9545DD19.png"
       id="image6"
       transform="translate(156,0)"
       height="471"
       width="348"
       style="opacity:0.34999999999999998;overflow:visible;stroke:#f1404b;stroke-opacity:1" /><g
       id="g8"
       style="stroke:#f1404b;stroke-opacity:1"><g
         id="g10"
         style="stroke:#f1404b;stroke-opacity:1"><path
           id="XMLID_182_"
           class="st0"
           d="m 331.9,250.1 c 14.3,-1.4 49.3,-35.8 57.4,-46.5 8.1,-10.7 10.1,-75.8 17,-93.4 l -32,32.8 -10.1,-27 -21.4,45.3 c 0,0 -16.5,-25.4 -22.7,-40.3 l -1.5,47.4 c 0,0 -40.9,-50.4 -44.3,-56.2 l 4.2,34.7 -36.9,-29.9 c 0,0 17.3,75.5 24.7,93.6 9.2,9.1 51.3,40.9 65.6,39.5 z"
           inkscape:connector-curvature="0"
           style="fill:none;stroke:#f1404b;stroke-width:5;stroke-linecap:round;stroke-linejoin:round;stroke-miterlimit:10;stroke-opacity:1" /><path
           id="XMLID_181_"
           class="st0"
           d="m 256.4,177.9 c 0,0 -23,4.9 -26,-0.5 -3,-5.4 -10.3,-32.9 -6,-35.1 4.2,-2.2 18.8,-3 20.4,-3 1.6,0 -9.2,-54.7 -28.6,-69.4 0,0 19,-11.2 13.6,-13.6 l -13.6,-1.9 c 0,0 6.2,-22.5 26.5,-23.2 0,0 -0.6,7.4 0,8.9 0.6,1.5 16.8,-22.8 30.4,-20.5 0,0 -6.2,8.1 -5.4,15.9 0,0 32.9,-33.3 98.4,-22.8 0,0 -17,14.7 -16.3,18.6 l 67.8,-10.8 c 0,0 -13.9,27.9 -19,34.9 0,0 28.6,-11.7 32.1,-10.1 -8.5,10.7 -21.7,53.8 -29,90.6 0,0 18.1,-3.4 20.7,3.9 2.6,7.3 -1.6,34.4 -7.2,36.8 -5.6,2.4 -17.6,-0.7 -17.6,-0.7"
           inkscape:connector-curvature="0"
           style="fill:none;stroke:#f1404b;stroke-width:5;stroke-linecap:round;stroke-linejoin:round;stroke-miterlimit:10;stroke-opacity:1" /><path
           id="XMLID_180_"
           class="st0"
           d="m 289.3,233.7 c 0,0 15.7,53.4 42.5,73.6 5,-2 32.9,-49.6 34.7,-57.1 1.8,-7.5 0,-22.2 0,-22.2"
           inkscape:connector-curvature="0"
           style="fill:none;stroke:#f1404b;stroke-width:5;stroke-linecap:round;stroke-linejoin:round;stroke-miterlimit:10;stroke-opacity:1" /><path
           id="XMLID_179_"
           class="st0"
           d="m 307,275.9 c 0,0 22.8,4.1 47.2,-1.6"
           inkscape:connector-curvature="0"
           style="fill:none;stroke:#f1404b;stroke-width:5;stroke-linecap:round;stroke-linejoin:round;stroke-miterlimit:10;stroke-opacity:1" /><path
           id="XMLID_178_"
           class="st0"
           d="m 292.5,244.6 c 0,0 -24.5,-13.9 -32.7,-11.1 -8.2,2.8 -16.5,16.7 -16.5,16.7 0,0 -27.7,-10.3 -34.9,-5.6 -7.2,4.8 -32.4,42.2 -29.7,45.8 5,11.1 108.3,40.4 115.4,50.5 7.1,10.2 9.3,15.7 8.7,23.4"
           inkscape:connector-curvature="0"
           style="fill:none;stroke:#f1404b;stroke-width:5;stroke-linecap:round;stroke-linejoin:round;stroke-miterlimit:10;stroke-opacity:1" /><path
           id="XMLID_177_"
           class="st0"
           d="m 368.4,241 c 0,0 30.8,-11.2 34.3,-9.4 3.5,1.8 2.8,7.7 5.7,10.3 2.9,2.6 23.7,-15 31.8,-11.3 8.1,3.7 32.2,24.2 30.3,30.6 -1.9,6.4 -80,54 -91.6,56.6 -11.6,2.6 -29.8,17.8 -34.3,24.4"
           inkscape:connector-curvature="0"
           style="fill:none;stroke:#f1404b;stroke-width:5;stroke-linecap:round;stroke-linejoin:round;stroke-miterlimit:10;stroke-opacity:1" /><path
           id="XMLID_176_"
           class="st0"
           d="m 243.3,250.2 c 0,0 35.5,21.2 48.2,36"
           inkscape:connector-curvature="0"
           style="fill:none;stroke:#f1404b;stroke-width:5;stroke-linecap:round;stroke-linejoin:round;stroke-miterlimit:10;stroke-opacity:1" /><path
           id="XMLID_175_"
           class="st1"
           d="m 270,331.8 c 0,0 -4,74.7 1.2,83.3"
           inkscape:connector-curvature="0"
           style="fill:none;stroke:#f1404b;stroke-width:8;stroke-linecap:round;stroke-linejoin:round;stroke-miterlimit:10;stroke-opacity:1" /><circle
           id="XMLID_174_"
           class="st2"
           cx="271.60001"
           cy="418.79999"
           r="6.3000002"
           sodipodi:cx="271.60001"
           sodipodi:cy="418.79999"
           sodipodi:rx="6.3000002"
           sodipodi:ry="6.3000002"
           style="fill:#dddfe6;stroke:#f1404b;stroke-opacity:1"
           d="m 277.90001,418.79999 c 0,3.47939 -2.82061,6.3 -6.3,6.3 -3.4794,0 -6.3,-2.82061 -6.3,-6.3 0,-3.4794 2.8206,-6.3 6.3,-6.3 3.47939,0 6.3,2.8206 6.3,6.3 z" /><path
           id="XMLID_173_"
           class="st1"
           d="m 365.8,325.8 c 0,0 21.3,28.4 0,116.4"
           inkscape:connector-curvature="0"
           style="fill:none;stroke:#f1404b;stroke-width:8;stroke-linecap:round;stroke-linejoin:round;stroke-miterlimit:10;stroke-opacity:1" /><circle
           id="XMLID_172_"
           class="st2"
           cx="365.60001"
           cy="441.79999"
           r="6.3000002"
           sodipodi:cx="365.60001"
           sodipodi:cy="441.79999"
           sodipodi:rx="6.3000002"
           sodipodi:ry="6.3000002"
           style="fill:#dddfe6;stroke:#f1404b;stroke-opacity:1"
           d="m 371.90001,441.79999 c 0,3.47939 -2.82061,6.3 -6.3,6.3 -3.4794,0 -6.3,-2.82061 -6.3,-6.3 0,-3.4794 2.8206,-6.3 6.3,-6.3 3.47939,0 6.3,2.8206 6.3,6.3 z" /><path
           id="XMLID_171_"
           class="st3"
           d="m 184.3,295.3 c 0,0 -16.8,36.4 -16.6,52.5"
           inkscape:connector-curvature="0"
           style="fill:none;stroke:#f1404b;stroke-width:6;stroke-linecap:round;stroke-linejoin:round;stroke-miterlimit:10;stroke-opacity:1" /><path
           id="XMLID_170_"
           class="st3"
           d="m 466.6,267.3 c 0,0 14.9,63.9 12,100.9"
           inkscape:connector-curvature="0"
           style="fill:none;stroke:#f1404b;stroke-width:6;stroke-linecap:round;stroke-linejoin:round;stroke-miterlimit:10;stroke-opacity:1" /><circle
           id="XMLID_169_"
           class="st2"
           cx="408.5"
           cy="167.3"
           r="3.2"
           sodipodi:cx="408.5"
           sodipodi:cy="167.3"
           sodipodi:rx="3.2"
           sodipodi:ry="3.2"
           style="fill:#dddfe6;stroke:#f1404b;stroke-opacity:1"
           d="m 411.7,167.3 c 0,1.76731 -1.43269,3.2 -3.2,3.2 -1.76731,0 -3.2,-1.43269 -3.2,-3.2 0,-1.76731 1.43269,-3.2 3.2,-3.2 1.76731,0 3.2,1.43269 3.2,3.2 z" /></g></g></g></svg>