<?xml version="1.0" encoding="utf-8"?>
<!-- Generator: Adobe Illustrator 19.0.0, SVG Export Plug-In . SVG Version: 6.00 Build 0)  -->
<svg version="1.1" id="Layer_1" xmlns="http://www.w3.org/2000/svg" xmlns:xlink="http://www.w3.org/1999/xlink" x="0px" y="0px"
	 viewBox="152.5 8.2 335 462.8" style="enable-background:new 152.5 8.2 335 462.8;" xml:space="preserve">
<style type="text/css">
	.st0{fill:none;stroke:#DDDFE6;stroke-width:5;stroke-linecap:round;stroke-linejoin:round;stroke-miterlimit:10;}
	.st1{fill:none;stroke:#DDDFE6;stroke-width:8;stroke-linecap:round;stroke-linejoin:round;stroke-miterlimit:10;}
	.st2{fill:#DDDFE6;}
	.st3{fill:none;stroke:#DDDFE6;stroke-width:6;stroke-linecap:round;stroke-linejoin:round;stroke-miterlimit:10;}
</style>
<g id="Layer_2">
	
		<image style="overflow:visible;opacity:0.35;" width="348" height="471" xlink:href="9545DD19.png"  transform="matrix(1 0 0 1 156 0)">
	</image>
	<g>
		<g>
			<path id="XMLID_182_" class="st0" d="M331.9,250.1c14.3-1.4,49.3-35.8,57.4-46.5s10.1-75.8,17-93.4l-32,32.8l-10.1-27l-21.4,45.3
				c0,0-16.5-25.4-22.7-40.3l-1.5,47.4c0,0-40.9-50.4-44.3-56.2l4.2,34.7L241.6,117c0,0,17.3,75.5,24.7,93.6
				C275.5,219.7,317.6,251.5,331.9,250.1z"/>
			<path id="XMLID_181_" class="st0" d="M256.4,177.9c0,0-23,4.9-26-0.5s-10.3-32.9-6-35.1c4.2-2.2,18.8-3,20.4-3
				c1.6,0-9.2-54.7-28.6-69.4c0,0,19-11.2,13.6-13.6l-13.6-1.9c0,0,6.2-22.5,26.5-23.2c0,0-0.6,7.4,0,8.9s16.8-22.8,30.4-20.5
				c0,0-6.2,8.1-5.4,15.9c0,0,32.9-33.3,98.4-22.8c0,0-17,14.7-16.3,18.6l67.8-10.8c0,0-13.9,27.9-19,34.9c0,0,28.6-11.7,32.1-10.1
				c-8.5,10.7-21.7,53.8-29,90.6c0,0,18.1-3.4,20.7,3.9c2.6,7.3-1.6,34.4-7.2,36.8c-5.6,2.4-17.6-0.7-17.6-0.7"/>
			<path id="XMLID_180_" class="st0" d="M289.3,233.7c0,0,15.7,53.4,42.5,73.6c5-2,32.9-49.6,34.7-57.1s0-22.2,0-22.2"/>
			<path id="XMLID_179_" class="st0" d="M307,275.9c0,0,22.8,4.1,47.2-1.6"/>
			<path id="XMLID_178_" class="st0" d="M292.5,244.6c0,0-24.5-13.9-32.7-11.1c-8.2,2.8-16.5,16.7-16.5,16.7s-27.7-10.3-34.9-5.6
				c-7.2,4.8-32.4,42.2-29.7,45.8c5,11.1,108.3,40.4,115.4,50.5c7.1,10.2,9.3,15.7,8.7,23.4"/>
			<path id="XMLID_177_" class="st0" d="M368.4,241c0,0,30.8-11.2,34.3-9.4s2.8,7.7,5.7,10.3c2.9,2.6,23.7-15,31.8-11.3
				c8.1,3.7,32.2,24.2,30.3,30.6c-1.9,6.4-80,54-91.6,56.6s-29.8,17.8-34.3,24.4"/>
			<path id="XMLID_176_" class="st0" d="M243.3,250.2c0,0,35.5,21.2,48.2,36"/>
			<path id="XMLID_175_" class="st1" d="M270,331.8c0,0-4,74.7,1.2,83.3"/>
			<circle id="XMLID_174_" class="st2" cx="271.6" cy="418.8" r="6.3"/>
			<path id="XMLID_173_" class="st1" d="M365.8,325.8c0,0,21.3,28.4,0,116.4"/>
			<circle id="XMLID_172_" class="st2" cx="365.6" cy="441.8" r="6.3"/>
			<path id="XMLID_171_" class="st3" d="M184.3,295.3c0,0-16.8,36.4-16.6,52.5"/>
			<path id="XMLID_170_" class="st3" d="M466.6,267.3c0,0,14.9,63.9,12,100.9"/>
			<circle id="XMLID_169_" class="st2" cx="408.5" cy="167.3" r="3.2"/>
		</g>
	</g>
</g>
</svg>
