<?xml version="1.0" encoding="utf-8"?>
<!-- Generator: Adobe Illustrator 19.0.0, SVG Export Plug-In . SVG Version: 6.00 Build 0)  -->
<svg version="1.1" id="Layer_1" xmlns="http://www.w3.org/2000/svg" xmlns:xlink="http://www.w3.org/1999/xlink" x="0px" y="0px"
	 viewBox="0 0 322.2 73.8" style="enable-background:new 0 0 322.2 73.8;" xml:space="preserve">
<style type="text/css">
	.st0{fill-rule:evenodd;clip-rule:evenodd;fill:#13587C;}
	.st1{fill:#13587C;}
</style>
<g>
	<path class="st0" d="M14.6,16.1c5.6-6,13.5-9.7,22.4-9.7c16.9,0,30.5,13.7,30.5,30.5c0,9.3-4.1,17.5-10.6,23.1
		c-0.5,0.5-1.1,0.9-1.7,1.4L42.4,47.1h3.8c3.8,0,6.8-1.5,9.1-4.5c2.1-2.7,3.1-6,3.1-9.9c0-3.9-1-7.2-3.1-9.9c-2.2-3-5.2-4.5-9.1-4.5
		H12.7H5c-1.8,3.1-3.2,6.4-4,10c-0.2,0.7-0.3,1.4-0.4,2.2C0.2,32.6,0,34.7,0,36.9c0,20.4,16.5,36.9,36.9,36.9
		c3.9,0,7.6-0.6,11.2-1.7l-4.8-5.4c-2.1,0.4-4.2,0.7-6.4,0.7c-16.9,0-30.5-13.7-30.5-30.5c0-2.2,0.2-4.4,0.7-6.5
		c0.2-0.7,0.3-1.5,0.6-2.2h38c1.8,0,2.7,1.5,2.7,4.4c0,2.9-0.9,4.4-2.7,4.4H20l25.8,29l4.6,5.2c3.3-1.3,6.3-3,9.1-5.1
		c0.6-0.4,1.1-0.9,1.7-1.4c7.8-6.8,12.8-16.8,12.8-27.9C73.8,16.5,57.3,0,36.9,0C24.2,0,13,6.4,6.4,16.1H14.6L14.6,16.1z"/>
	<path class="st1" d="M135.8,33.5c0,2.8-0.4,4.8-1.3,5.9c-0.8,1.1-2.7,1.8-5.5,2.2c2.1,0.3,3.7,0.8,4.7,1.5c1,0.7,1.5,2.1,1.5,4.1
		v8.6h-3.8v-7c0-2.3-0.5-3.9-1.5-4.7c-1-0.8-2.7-1.1-5.2-1.1h-21.6v12.8h-3.8V24.1h25.8c3.8,0,6.6,0.6,8.2,1.9
		C135,27.3,135.8,29.8,135.8,33.5L135.8,33.5z M131.8,33.2c0-2.5-0.6-4.1-1.8-4.8c-1.2-0.7-3.1-1.1-5.8-1.1h-21.1v12.4h21.2
		c2.8,0,4.7-0.4,5.8-1.3C131.3,37.5,131.8,35.8,131.8,33.2L131.8,33.2z M173.8,37.7v3.2h-26.5v11.6h27.9v3.2h-31.7V24.1h31.4v3.2
		h-27.5v10.4H173.8L173.8,37.7z M206.4,55.7l-19.7-28.4v28.4h-3.8V24.1h6.3l18.9,27.1l19-27.1h6.2v31.7h-3.8V27.3l-19.8,28.4H206.4
		L206.4,55.7z M278.8,45.9c0,4.5-0.9,7.3-2.7,8.4c-1.8,1.1-5.2,1.7-10.1,1.7l-6.4,0.1l-9.1-0.1c-3.1,0-5.4-0.7-6.9-2.1
		c-1.4-1.4-2.2-3.6-2.2-6.8v-23h3.8v22.4c0,2.5,0.6,4.1,1.7,4.8c1.1,0.7,3.1,1.1,5.8,1.1l6.8,0.2l7.4-0.2c3,0,5-0.4,6.2-1.1
		c1.1-0.7,1.7-2.4,1.7-5.1v-0.7V24.1h3.8V45.9L278.8,45.9z M257.8,20.9h-6.7v-3.1h6.7V20.9L257.8,20.9z M269.3,20.9h-6.7v-3.1h6.7
		V20.9L269.3,20.9z M322.2,24.1l-17.6,31.7h-5.3L282,24.1h4.5L302,52.3l15.8-28.2H322.2L322.2,24.1z"/>
</g>
</svg>
