<?xml version="1.0" encoding="utf-8"?>
<!-- Generator: Adobe Illustrator 19.0.0, SVG Export Plug-In . SVG Version: 6.00 Build 0)  -->
<svg version="1.1" id="Layer_1" xmlns="http://www.w3.org/2000/svg" xmlns:xlink="http://www.w3.org/1999/xlink" x="0px" y="0px"
	 viewBox="140.6 -72 282.8 128.7" style="enable-background:new 140.6 -72 282.8 128.7;" xml:space="preserve">
<style type="text/css">
	.st0{fill:#DDDFE6;}
	.st1{fill:none;stroke:#DDDFE6;stroke-miterlimit:10;}
	.st2{fill:#F1404B;}
</style>
<g>
	<g>
		<path class="st0" d="M154.2-46.2c1.3,0,2.4-1.1,2.4-2.4c0-1.3-1.1-2.4-2.4-2.4c-1.3,0-2.4,1.1-2.4,2.4
			C151.8-47.2,152.9-46.2,154.2-46.2z M154.2-49.9c0.8,0,1.4,0.6,1.4,1.4c0,0.8-0.6,1.4-1.4,1.4s-1.4-0.6-1.4-1.4
			S153.4-49.9,154.2-49.9z"/>
		<path class="st0" d="M159.9-46.2c1.3,0,2.4-1.1,2.4-2.4c0-1.3-1.1-2.4-2.4-2.4c-1.3,0-2.4,1.1-2.4,2.4
			C157.5-47.2,158.6-46.2,159.9-46.2z M159.9-49.9c0.8,0,1.4,0.6,1.4,1.4c0,0.8-0.6,1.4-1.4,1.4c-0.8,0-1.4-0.6-1.4-1.4
			S159.1-49.9,159.9-49.9z"/>
		<path class="st0" d="M165.6-46.2c1.3,0,2.4-1.1,2.4-2.4c0-1.3-1.1-2.4-2.4-2.4s-2.4,1.1-2.4,2.4C163.2-47.2,164.3-46.2,165.6-46.2
			z M165.6-49.9c0.8,0,1.4,0.6,1.4,1.4c0,0.8-0.6,1.4-1.4,1.4s-1.4-0.6-1.4-1.4S164.8-49.9,165.6-49.9z"/>
		<path class="st0" d="M175.2,15.4h-18.7c-0.3,0-0.5,0.2-0.5,0.5s0.2,0.5,0.5,0.5h18.7c0.3,0,0.5-0.2,0.5-0.5S175.5,15.4,175.2,15.4
			z"/>
		<path class="st0" d="M175.2,17.9h-18.7c-0.3,0-0.5,0.2-0.5,0.5s0.2,0.5,0.5,0.5h18.7c0.3,0,0.5-0.2,0.5-0.5S175.5,17.9,175.2,17.9
			z"/>
		<path class="st0" d="M175.2,20.4h-18.7c-0.3,0-0.5,0.2-0.5,0.5s0.2,0.5,0.5,0.5h18.7c0.3,0,0.5-0.2,0.5-0.5S175.5,20.4,175.2,20.4
			z"/>
		<path class="st0" d="M175.2,22.9h-18.7c-0.3,0-0.5,0.2-0.5,0.5c0,0.3,0.2,0.5,0.5,0.5h18.7c0.3,0,0.5-0.2,0.5-0.5
			C175.7,23.1,175.5,22.9,175.2,22.9z"/>
		<path class="st0" d="M201.4,15.4h-18.7c-0.3,0-0.5,0.2-0.5,0.5s0.2,0.5,0.5,0.5h18.7c0.3,0,0.5-0.2,0.5-0.5S201.7,15.4,201.4,15.4
			z"/>
		<path class="st0" d="M201.4,17.9h-18.7c-0.3,0-0.5,0.2-0.5,0.5s0.2,0.5,0.5,0.5h18.7c0.3,0,0.5-0.2,0.5-0.5S201.7,17.9,201.4,17.9
			z"/>
		<path class="st0" d="M201.4,20.4h-18.7c-0.3,0-0.5,0.2-0.5,0.5s0.2,0.5,0.5,0.5h18.7c0.3,0,0.5-0.2,0.5-0.5S201.7,20.4,201.4,20.4
			z"/>
		<path class="st0" d="M201.4,22.9h-18.7c-0.3,0-0.5,0.2-0.5,0.5c0,0.3,0.2,0.5,0.5,0.5h18.7c0.3,0,0.5-0.2,0.5-0.5
			C201.9,23.1,201.7,22.9,201.4,22.9z"/>
		<path class="st0" d="M227.2,15.4h-18.7c-0.3,0-0.5,0.2-0.5,0.5s0.2,0.5,0.5,0.5h18.7c0.3,0,0.5-0.2,0.5-0.5S227.5,15.4,227.2,15.4
			z"/>
		<path class="st0" d="M227.2,17.9h-18.7c-0.3,0-0.5,0.2-0.5,0.5s0.2,0.5,0.5,0.5h18.7c0.3,0,0.5-0.2,0.5-0.5S227.5,17.9,227.2,17.9
			z"/>
		<path class="st0" d="M227.2,20.4h-18.7c-0.3,0-0.5,0.2-0.5,0.5s0.2,0.5,0.5,0.5h18.7c0.3,0,0.5-0.2,0.5-0.5S227.5,20.4,227.2,20.4
			z"/>
		<path class="st0" d="M227.2,22.9h-18.7c-0.3,0-0.5,0.2-0.5,0.5c0,0.3,0.2,0.5,0.5,0.5h18.7c0.3,0,0.5-0.2,0.5-0.5
			C227.7,23.1,227.5,22.9,227.2,22.9z"/>
		<path class="st0" d="M234.7-23.2v-20.6v-9.4h-85.8v9.4v20.5c0,0.1-0.2,0.2-0.2,0.4s0.2,0.3,0.2,0.4v52.1h85.8v-52.3
			c0-0.1,0.1-0.2,0.1-0.2L234.7-23.2z M233.7,28.5h-83.8v-51h32c0.4,5.1,4.7,9.2,10,9.2s9.6-4.1,10-9.2h31.8V28.5z M191.9-21.8
			c3,0,5.6,2.2,6.2,5.1c-1.6,1.5-3.8,2.4-6.2,2.4s-4.5-0.9-6.2-2.4C186.3-19.6,188.9-21.8,191.9-21.8z M189.5-25.5
			c0-1.4,1.1-2.4,2.4-2.4c1.4,0,2.4,1.1,2.4,2.4c0,1.3-1.1,2.4-2.4,2.4C190.6-23.1,189.5-24.2,189.5-25.5z M193.7-22.5
			c1-0.6,1.6-1.7,1.6-2.9c0-1.9-1.6-3.4-3.4-3.4c-1.9,0-3.4,1.6-3.4,3.4c0,1.3,0.7,2.3,1.6,2.9c-2.5,0.7-4.4,2.5-5.1,5
			c-1.3-1.6-2.1-3.6-2.1-5.8c0-5,4-9,9-9s9,4,9,9c0,2.2-0.8,4.2-2.1,5.8C198.2-20,196.2-21.9,193.7-22.5z M233.7-23.5h-31.8
			c-0.1-5.5-4.5-9.9-10-9.9s-9.9,4.4-10,9.9h-32v-20.2h83.8V-23.5z M233.7-44.7h-83.8v-7.6h83.8V-44.7z"/>
		<path class="st0" d="M155.5,11.3h20.2V-8.9h-20.2V11.3z M156.5-7.9h18.2v18.2h-18.2V-7.9z"/>
		<path class="st0" d="M181.7,11.3h20.2V-8.9h-20.2V11.3z M182.7-7.9h18.2v18.2h-18.2V-7.9z"/>
		<path class="st0" d="M227.6-8.9h-20.2v20.2h20.2C227.6,11.3,227.6-8.9,227.6-8.9z M226.6,10.3h-18.2V-7.9h18.2
			C226.6-7.9,226.6,10.3,226.6,10.3z"/>
	</g>
	<path class="st0" d="M229.9-37.6l7.8-15.6l1.8,1.8l7.6-5.5l-0.8-1.2l-6.7,4.8l-11.2-11.3l4.7-6.6l-1.2-0.8l-5.4,7.6l1.8,1.8
		l-15.6,7.8v0.4c-0.4,7-1.1,14.8-4.8,18.6l-0.5,0.5l1.1,1.1l0,0l1,1l0,0l1,1l0.5-0.5c3.7-3.7,11.2-4.4,18.6-4.8L229.9-37.6z
		 M210.8-34.6l9.8-9.8c0.8,0.3,1.7,0.2,2.4-0.4c0.8-0.8,0.8-2.2,0-3s-2.2-0.8-3,0c-0.7,0.7-0.8,1.7-0.4,2.5l-10.1,10.1l-0.1-0.1
		c3.6-4.3,4.3-11.8,4.7-18.6l15.3-7.6l7.3,7.3L229-38.9C222-38.6,214.9-37.9,210.8-34.6z"/>
</g>
<g>
	<path class="st0" d="M146,49.2l2.8-9.1h1.9l2.8,9.1l3.2-9.1h2.3l-4.4,12.6h-2.1l-2.6-8.6h-0.1l-2.6,8.6H145l-4.4-12.6h2.3L146,49.2
		z"/>
	<path class="st0" d="M169.5,48.9H162c0,0.7,0.4,1.3,1,1.7s1.3,0.6,2,0.6c1.2,0,2.1-0.4,2.7-1.1l1.2,1.3c-1,1.1-2.4,1.6-4,1.6
		c-1.3,0-2.5-0.4-3.4-1.3s-1.4-2.1-1.4-3.6s0.5-2.7,1.4-3.6c1-0.9,2.1-1.3,3.4-1.3c1.3,0,2.4,0.4,3.3,1.2c0.9,0.8,1.4,1.9,1.4,3.2
		L169.5,48.9L169.5,48.9z M162,47.3h5.5c0-0.8-0.3-1.4-0.8-1.9c-0.5-0.4-1.1-0.6-1.9-0.6c-0.7,0-1.4,0.2-2,0.7
		C162.3,45.9,162,46.5,162,47.3z"/>
	<path class="st0" d="M176.9,43.1c1.3,0,2.4,0.4,3.3,1.3c0.9,0.9,1.4,2.1,1.4,3.5c0,1.5-0.5,2.7-1.4,3.6s-2,1.4-3.2,1.4
		s-2.3-0.5-3.2-1.6v1.4h-2V39.4h2v5.5C174.5,43.7,175.6,43.1,176.9,43.1z M173.7,48c0,0.9,0.3,1.7,0.8,2.2c0.6,0.6,1.2,0.9,2,0.9
		s1.5-0.3,2.1-0.9s0.9-1.3,0.9-2.2s-0.3-1.7-0.9-2.3c-0.6-0.6-1.3-0.9-2.1-0.9s-1.5,0.3-2,0.9C174,46.3,173.7,47.1,173.7,48z"/>
	<path class="st0" d="M189.5,51.5c-0.9-0.9-1.3-2.1-1.3-3.6s0.5-2.7,1.4-3.6c0.9-0.9,2-1.3,3.3-1.3c1.3,0,2.3,0.5,3.1,1.6v-5.2h2
		v13.4h-2v-1.4c-0.7,1.1-1.8,1.6-3.3,1.6C191.5,52.9,190.4,52.5,189.5,51.5z M190.2,48c0,0.9,0.3,1.7,0.9,2.2
		c0.6,0.6,1.3,0.9,2.1,0.9s1.5-0.3,2-0.9c0.6-0.6,0.8-1.3,0.8-2.2s-0.3-1.7-0.8-2.3c-0.6-0.6-1.2-0.9-2-0.9s-1.5,0.3-2.1,0.9
		C190.5,46.3,190.2,47.1,190.2,48z"/>
	<path class="st0" d="M209.8,48.9h-7.5c0,0.7,0.4,1.3,1,1.7c0.6,0.4,1.3,0.6,2,0.6c1.2,0,2.1-0.4,2.7-1.1l1.2,1.3
		c-1,1.1-2.4,1.6-4,1.6c-1.3,0-2.5-0.4-3.4-1.3s-1.4-2.1-1.4-3.6s0.5-2.7,1.4-3.6c1-0.9,2.1-1.3,3.4-1.3c1.3,0,2.4,0.4,3.3,1.2
		c0.9,0.8,1.4,1.9,1.4,3.2v1.3H209.8z M202.3,47.3h5.5c0-0.8-0.3-1.4-0.8-1.9c-0.5-0.4-1.1-0.6-1.9-0.6c-0.7,0-1.4,0.2-2,0.7
		C202.6,45.9,202.3,46.5,202.3,47.3z"/>
	<path class="st0" d="M218.8,49.9c0,0.9-0.3,1.6-1,2.2c-0.7,0.5-1.5,0.8-2.5,0.8c-0.7,0-1.4-0.1-2.2-0.4c-0.8-0.3-1.4-0.6-2-1.1
		l1-1.6c1.1,0.8,2.2,1.3,3.2,1.3c0.5,0,0.8-0.1,1.1-0.3c0.3-0.2,0.4-0.5,0.4-0.8c0-0.5-0.6-0.9-1.9-1.3c-0.1,0-0.2-0.1-0.2-0.1
		c-2-0.5-3-1.4-3-2.7c0-0.9,0.3-1.6,1-2.1s1.6-0.8,2.7-0.8s2.1,0.3,3.1,1l-0.8,1.5c-0.8-0.5-1.6-0.8-2.5-0.8c-0.5,0-0.9,0.1-1.2,0.3
		c-0.3,0.2-0.5,0.4-0.5,0.8c0,0.3,0.2,0.5,0.5,0.7c0.2,0.1,0.5,0.2,0.9,0.3c0.4,0.1,0.7,0.2,1,0.3c0.3,0.1,0.6,0.2,0.9,0.3
		c0.3,0.1,0.6,0.3,0.9,0.5C218.5,48.3,218.8,49,218.8,49.9z"/>
	<path class="st0" d="M221.2,41.3c-0.3-0.3-0.4-0.6-0.4-0.9s0.1-0.6,0.4-0.9s0.6-0.4,0.9-0.4c0.3,0,0.6,0.1,0.9,0.4s0.4,0.6,0.4,0.9
		s-0.1,0.6-0.4,0.9s-0.6,0.4-0.9,0.4C221.8,41.7,221.5,41.5,221.2,41.3z M223.1,52.8h-2v-9.6h2V52.8z"/>
	<path class="st0" d="M234.9,43.2v8.4c0,1.7-0.5,3-1.4,3.8c-0.9,0.8-2.1,1.3-3.5,1.3c-1.4,0-2.7-0.4-3.9-1.3l1-1.5
		c0.9,0.7,1.9,1.1,2.8,1.1c1,0,1.7-0.2,2.3-0.7c0.6-0.5,0.8-1.3,0.8-2.4v-1.2c-0.3,0.6-0.7,1-1.3,1.4s-1.2,0.5-1.9,0.5
		c-1.3,0-2.3-0.4-3.1-1.3s-1.2-2-1.2-3.3s0.4-2.4,1.2-3.3s1.9-1.3,3.1-1.3c1.2,0,2.3,0.5,3.1,1.6v-1.4h2V43.2z M227.4,47.6
		c0,0.8,0.2,1.5,0.7,2c0.5,0.6,1.1,0.9,2,0.9c0.8,0,1.5-0.3,2-0.8c0.5-0.6,0.8-1.2,0.8-2.1c0-0.8-0.3-1.5-0.8-2.1s-1.2-0.9-2-0.9
		s-1.5,0.3-2,0.9C227.6,46.1,227.4,46.8,227.4,47.6z"/>
	<path class="st0" d="M239.8,47.6v5.2h-2v-9.6h2v1.7c0.3-0.6,0.8-1,1.3-1.4s1.2-0.5,1.8-0.5c1.1,0,2,0.3,2.6,1c0.7,0.7,1,1.6,1,2.9
		v5.9h-2v-5.3c0-1.8-0.7-2.6-2.2-2.6c-0.7,0-1.3,0.2-1.8,0.7C240.1,46,239.8,46.7,239.8,47.6z"/>
</g>
<path class="st1" d="M406,26.9c0,1.4-1.1,2.4-2.2,2.4h-86c-1.1,0-2.2-0.9-2.2-2.4v-74.1c0-3.3,2.4-5.9,5.4-5.9h79.7
	c3,0,5.4,2.6,5.4,5.9v74.1H406z M318.8-41.3h84v65.9c0,0.7-0.4,1.2-1.1,1.2h-81.8c-0.6,0-1.1-0.5-1.1-1.2V-41.3z M345.7,15.9
	l-20.2-9.4V1.1l20.2-9.6v6.4l-14,5.9l14,6.1V15.9z M350.1,20.3l7.3-33.4h4.1l-7.3,33.4H350.1z M365.8,16.1V9.7l14-6.1l-14-5.9v-6.3
	L386,1v5.4L365.8,16.1z"/>
<g>
	<path class="st0" d="M311.3,41.8c1.2,1.1,1.8,2.6,1.8,4.6s-0.6,3.5-1.8,4.6c-1.2,1.1-3,1.7-5.4,1.7h-4.2V40.1h4.3
		C308.3,40.2,310,40.7,311.3,41.8z M310.9,46.5c0-2.9-1.6-4.3-4.9-4.3h-2.1v8.6h2.3c1.5,0,2.7-0.4,3.5-1.1
		C310.5,49,310.9,47.9,310.9,46.5z"/>
	<path class="st0" d="M324.4,48.9h-7.5c0,0.7,0.4,1.3,1,1.7c0.6,0.4,1.3,0.6,2,0.6c1.2,0,2.1-0.4,2.7-1.1l1.2,1.3
		c-1,1.1-2.4,1.6-4,1.6c-1.3,0-2.5-0.4-3.4-1.3s-1.4-2.1-1.4-3.6s0.5-2.7,1.4-3.6c1-0.9,2.1-1.3,3.4-1.3c1.3,0,2.4,0.4,3.3,1.2
		c0.9,0.8,1.4,1.9,1.4,3.2v1.3H324.4z M316.9,47.3h5.5c0-0.8-0.3-1.4-0.8-1.9c-0.5-0.4-1.1-0.6-1.9-0.6c-0.7,0-1.4,0.2-2,0.7
		C317.2,45.9,316.9,46.5,316.9,47.3z"/>
	<path class="st0" d="M329.1,52.8l-3.9-9.6h2.1l2.9,7.2l2.9-7.2h2.1l-3.9,9.6H329.1z"/>
	<path class="st0" d="M345.7,48.9h-7.5c0,0.7,0.4,1.3,1,1.7c0.6,0.4,1.3,0.6,2,0.6c1.2,0,2.1-0.4,2.7-1.1l1.2,1.3
		c-1,1.1-2.4,1.6-4,1.6c-1.3,0-2.5-0.4-3.4-1.3c-0.9-0.9-1.4-2.1-1.4-3.6s0.5-2.7,1.4-3.6c1-0.9,2.1-1.3,3.4-1.3
		c1.3,0,2.4,0.4,3.3,1.2c0.9,0.8,1.4,1.9,1.4,3.2L345.7,48.9L345.7,48.9z M338.2,47.3h5.5c0-0.8-0.3-1.4-0.8-1.9
		c-0.5-0.4-1.1-0.6-1.9-0.6c-0.7,0-1.4,0.2-2,0.7C338.5,45.9,338.2,46.5,338.2,47.3z"/>
	<path class="st0" d="M350,52.8h-2V39.4h2V52.8z"/>
	<path class="st0" d="M360.9,51.5c-1,1-2.2,1.4-3.6,1.4c-1.4,0-2.6-0.5-3.6-1.4c-1-1-1.4-2.1-1.4-3.5s0.5-2.5,1.4-3.5
		c1-1,2.2-1.4,3.6-1.4c1.4,0,2.6,0.5,3.6,1.4s1.4,2.1,1.4,3.5S361.9,50.5,360.9,51.5z M355.1,50.2c0.6,0.6,1.3,0.9,2.2,0.9
		c0.9,0,1.6-0.3,2.2-0.9s0.9-1.3,0.9-2.3s-0.3-1.7-0.9-2.3c-0.6-0.6-1.3-0.9-2.2-0.9c-0.9,0-1.6,0.3-2.2,0.9s-0.9,1.3-0.9,2.3
		S354.6,49.7,355.1,50.2z"/>
	<path class="st0" d="M369.8,43.1c1.3,0,2.4,0.4,3.3,1.3s1.4,2.1,1.4,3.5c0,1.5-0.5,2.7-1.4,3.6c-0.9,0.9-2,1.4-3.2,1.4
		s-2.3-0.5-3.2-1.6v4.9h-2V43.1h2v1.7C367.4,43.7,368.5,43.1,369.8,43.1z M366.6,48c0,0.9,0.3,1.7,0.8,2.2c0.6,0.6,1.2,0.9,2,0.9
		c0.8,0,1.5-0.3,2.1-0.9s0.9-1.3,0.9-2.2c0-0.9-0.3-1.7-0.9-2.3c-0.6-0.6-1.3-0.9-2.1-0.9c-0.8,0-1.5,0.3-2,0.9
		C366.9,46.3,366.6,47.1,366.6,48z"/>
	<path class="st0" d="M378.7,47.6v5.2h-2v-9.6h2v1.7c0.3-0.6,0.7-1,1.3-1.4s1.2-0.5,1.9-0.5c1.5,0,2.5,0.6,3.1,1.9
		c0.9-1.2,2.1-1.9,3.5-1.9c1.1,0,2,0.3,2.6,1c0.7,0.7,1,1.6,1,2.9v5.9h-2v-5.3c0-1.8-0.7-2.6-2.2-2.6c-0.7,0-1.3,0.2-1.8,0.7
		c-0.5,0.4-0.8,1.1-0.8,1.9v5.3h-2v-5.3c0-0.9-0.2-1.6-0.5-2c-0.3-0.4-0.8-0.6-1.5-0.6c-0.7,0-1.3,0.2-1.8,0.7
		C379,46,378.7,46.7,378.7,47.6z"/>
	<path class="st0" d="M403.9,48.9h-7.5c0,0.7,0.4,1.3,1,1.7c0.6,0.4,1.3,0.6,2,0.6c1.2,0,2.1-0.4,2.7-1.1l1.2,1.3
		c-1,1.1-2.4,1.6-4,1.6c-1.3,0-2.5-0.4-3.4-1.3s-1.4-2.1-1.4-3.6s0.5-2.7,1.4-3.6c1-0.9,2.1-1.3,3.4-1.3s2.4,0.4,3.3,1.2
		c0.9,0.8,1.4,1.9,1.4,3.2v1.3H403.9z M396.4,47.3h5.5c0-0.8-0.3-1.4-0.8-1.9c-0.5-0.4-1.1-0.6-1.9-0.6c-0.7,0-1.4,0.2-2,0.7
		C396.7,45.9,396.4,46.5,396.4,47.3z"/>
	<path class="st0" d="M408.1,47.6v5.2h-2v-9.6h2v1.7c0.3-0.6,0.8-1,1.3-1.4s1.2-0.5,1.8-0.5c1.1,0,2,0.3,2.6,1c0.7,0.7,1,1.6,1,2.9
		v5.9h-2v-5.3c0-1.8-0.7-2.6-2.2-2.6c-0.7,0-1.3,0.2-1.8,0.7C408.4,46,408.1,46.7,408.1,47.6z"/>
	<path class="st0" d="M420.1,44.8v4.9c0,0.5,0.1,0.8,0.4,1.1c0.2,0.3,0.6,0.4,1,0.4s0.8-0.2,1.2-0.6l0.8,1.4c-0.7,0.6-1.5,1-2.3,1
		c-0.8,0-1.6-0.3-2.2-0.9s-0.9-1.4-0.9-2.4v-4.8h-1.2v-1.6h1.2v-3h2v3h2.5v1.6h-2.5V44.8z"/>
</g>
<g>
	<path class="st2" d="M270.5-13.3c-1-1.2-1.8-2.3-2.2-3.3c-0.4-1-0.7-1.9-0.7-2.9c0-1.8,0.5-3.2,1.6-4.3c1.1-1.1,2.5-1.6,4.3-1.6
		c1.6,0,2.9,0.5,4,1.4c1.1,0.9,1.5,2.1,1.5,3.6c0,1.7-1,3.3-2.9,5l-2.8,2.2l7,8.2c1.1-1.7,1.6-3.7,1.6-5.9h2c0,2.9-0.8,5.4-2.3,7.4
		l3.5,4.1h-2.5L280.4-2c-0.9,0.9-2,1.6-3.2,2.1c-1.2,0.5-2.5,0.8-3.8,0.8c-2.4,0-4.4-0.6-5.8-1.9c-1.4-1.3-2.1-2.9-2.1-5
		c0-1.2,0.4-2.4,1.1-3.5c0.7-1.1,2-2.4,3.9-3.7V-13.3z M273.2-0.8c1.1,0,2.1-0.2,3.1-0.7s1.9-1.1,2.7-1.9l-7.2-8.3l-0.2-0.3
		l-0.8,0.6c-2.3,1.9-3.4,3.7-3.4,5.4c0,1.5,0.5,2.8,1.6,3.7C270-1.4,271.4-0.8,273.2-0.8z M269.6-19.5c0,1.4,0.8,3.1,2.4,5.1
		l2.3-1.8c0.8-0.5,1.4-1.1,1.8-1.8s0.7-1.4,0.7-2.3c0-0.9-0.3-1.7-0.9-2.3s-1.5-0.9-2.5-0.9c-1.1,0-2.1,0.4-2.7,1.1
		C270.1-21.7,269.6-20.7,269.6-19.5z"/>
</g>
</svg>
