<?xml version="1.0" encoding="utf-8"?>
<!-- Generator: Adobe Illustrator 19.0.0, SVG Export Plug-In . SVG Version: 6.00 Build 0)  -->
<svg version="1.1" id="Layer_1" xmlns="http://www.w3.org/2000/svg" xmlns:xlink="http://www.w3.org/1999/xlink" x="0px" y="0px"
	 viewBox="-430 230.4 86.1 101.6" style="enable-background:new -430 230.4 86.1 101.6;" xml:space="preserve">
<style type="text/css">
	.st0{fill:#DDDFE6;}
</style>
<g>
	<path class="st0" d="M-424.5,256.2c1.3,0,2.4-1.1,2.4-2.4c0-1.3-1.1-2.4-2.4-2.4s-2.4,1.1-2.4,2.4
		C-426.9,255.2-425.8,256.2-424.5,256.2z M-424.5,252.5c0.8,0,1.4,0.6,1.4,1.4s-0.6,1.4-1.4,1.4s-1.4-0.6-1.4-1.4
		S-425.3,252.5-424.5,252.5z"/>
	<path class="st0" d="M-418.8,256.2c1.3,0,2.4-1.1,2.4-2.4c0-1.3-1.1-2.4-2.4-2.4c-1.3,0-2.4,1.1-2.4,2.4
		C-421.2,255.2-420.1,256.2-418.8,256.2z M-418.8,252.5c0.8,0,1.4,0.6,1.4,1.4s-0.6,1.4-1.4,1.4c-0.8,0-1.4-0.6-1.4-1.4
		S-419.6,252.5-418.8,252.5z"/>
	<path class="st0" d="M-413.1,256.2c1.3,0,2.4-1.1,2.4-2.4c0-1.3-1.1-2.4-2.4-2.4c-1.3,0-2.4,1.1-2.4,2.4
		C-415.5,255.2-414.4,256.2-413.1,256.2z M-413.1,252.5c0.8,0,1.4,0.6,1.4,1.4s-0.6,1.4-1.4,1.4c-0.8,0-1.4-0.6-1.4-1.4
		S-413.9,252.5-413.1,252.5z"/>
	<path class="st0" d="M-403.5,317.8h-18.7c-0.3,0-0.5,0.2-0.5,0.5c0,0.3,0.2,0.5,0.5,0.5h18.7c0.3,0,0.5-0.2,0.5-0.5
		C-403,318-403.2,317.8-403.5,317.8z"/>
	<path class="st0" d="M-403.5,320.3h-18.7c-0.3,0-0.5,0.2-0.5,0.5c0,0.3,0.2,0.5,0.5,0.5h18.7c0.3,0,0.5-0.2,0.5-0.5
		C-403,320.5-403.2,320.3-403.5,320.3z"/>
	<path class="st0" d="M-403.5,322.8h-18.7c-0.3,0-0.5,0.2-0.5,0.5c0,0.3,0.2,0.5,0.5,0.5h18.7c0.3,0,0.5-0.2,0.5-0.5
		C-403,323-403.2,322.8-403.5,322.8z"/>
	<path class="st0" d="M-403.5,325.3h-18.7c-0.3,0-0.5,0.2-0.5,0.5c0,0.3,0.2,0.5,0.5,0.5h18.7c0.3,0,0.5-0.2,0.5-0.5
		C-403,325.5-403.2,325.3-403.5,325.3z"/>
	<path class="st0" d="M-377.3,317.8H-396c-0.3,0-0.5,0.2-0.5,0.5c0,0.3,0.2,0.5,0.5,0.5h18.7c0.3,0,0.5-0.2,0.5-0.5
		C-376.8,318-377,317.8-377.3,317.8z"/>
	<path class="st0" d="M-377.3,320.3H-396c-0.3,0-0.5,0.2-0.5,0.5c0,0.3,0.2,0.5,0.5,0.5h18.7c0.3,0,0.5-0.2,0.5-0.5
		C-376.8,320.5-377,320.3-377.3,320.3z"/>
	<path class="st0" d="M-377.3,322.8H-396c-0.3,0-0.5,0.2-0.5,0.5c0,0.3,0.2,0.5,0.5,0.5h18.7c0.3,0,0.5-0.2,0.5-0.5
		C-376.8,323-377,322.8-377.3,322.8z"/>
	<path class="st0" d="M-377.3,325.3H-396c-0.3,0-0.5,0.2-0.5,0.5c0,0.3,0.2,0.5,0.5,0.5h18.7c0.3,0,0.5-0.2,0.5-0.5
		C-376.8,325.5-377,325.3-377.3,325.3z"/>
	<path class="st0" d="M-351.5,317.8h-18.7c-0.3,0-0.5,0.2-0.5,0.5c0,0.3,0.2,0.5,0.5,0.5h18.7c0.3,0,0.5-0.2,0.5-0.5
		C-351,318-351.2,317.8-351.5,317.8z"/>
	<path class="st0" d="M-351.5,320.3h-18.7c-0.3,0-0.5,0.2-0.5,0.5c0,0.3,0.2,0.5,0.5,0.5h18.7c0.3,0,0.5-0.2,0.5-0.5
		C-351,320.5-351.2,320.3-351.5,320.3z"/>
	<path class="st0" d="M-351.5,322.8h-18.7c-0.3,0-0.5,0.2-0.5,0.5c0,0.3,0.2,0.5,0.5,0.5h18.7c0.3,0,0.5-0.2,0.5-0.5
		C-351,323-351.2,322.8-351.5,322.8z"/>
	<path class="st0" d="M-351.5,325.3h-18.7c-0.3,0-0.5,0.2-0.5,0.5c0,0.3,0.2,0.5,0.5,0.5h18.7c0.3,0,0.5-0.2,0.5-0.5
		C-351,325.5-351.2,325.3-351.5,325.3z"/>
	<path class="st0" d="M-344,279.2v-20.6v-9.4h-85.8v9.4v20.5c0,0.1-0.2,0.2-0.2,0.4s0.2,0.3,0.2,0.4V332h85.8v-52.3
		c0-0.1,0.1-0.2,0.1-0.2L-344,279.2z M-345,330.9h-83.8v-51h32c0.4,5.1,4.7,9.2,10,9.2c5.3,0,9.6-4.1,10-9.2h31.8V330.9z
		 M-386.8,280.6c3,0,5.6,2.2,6.2,5.1c-1.6,1.5-3.8,2.4-6.2,2.4c-2.4,0-4.5-0.9-6.2-2.4C-392.4,282.8-389.8,280.6-386.8,280.6z
		 M-389.2,276.9c0-1.4,1.1-2.4,2.4-2.4c1.4,0,2.4,1.1,2.4,2.4s-1.1,2.4-2.4,2.4C-388.1,279.3-389.2,278.2-389.2,276.9z M-385,279.9
		c1-0.6,1.6-1.7,1.6-2.9c0-1.9-1.6-3.4-3.4-3.4c-1.9,0-3.4,1.6-3.4,3.4c0,1.3,0.7,2.3,1.6,2.9c-2.5,0.7-4.4,2.5-5.1,5
		c-1.3-1.6-2.1-3.6-2.1-5.8c0-5,4-9,9-9s9,4,9,9c0,2.2-0.8,4.2-2.1,5.8C-380.5,282.4-382.5,280.5-385,279.9z M-345,278.9h-31.8
		c-0.1-5.5-4.5-9.9-10-9.9s-9.9,4.4-10,9.9h-32v-20.2h83.8V278.9z M-345,257.7h-83.8v-7.6h83.8V257.7z"/>
	<path class="st0" d="M-423.2,313.7h20.2v-20.2h-20.2V313.7z M-422.2,294.5h18.2v18.2h-18.2V294.5z"/>
	<path class="st0" d="M-397,313.7h20.2v-20.2H-397V313.7z M-396,294.5h18.2v18.2H-396V294.5z"/>
	<path class="st0" d="M-351.1,293.5h-20.2v20.2h20.2V293.5z M-352.1,312.7h-18.2v-18.2h18.2V312.7z"/>
</g>
<path class="st0" d="M-361.8,264.8l7.8-15.6l1.8,1.8l7.6-5.5l-0.8-1.2l-6.7,4.8l-11.2-11.3l4.7-6.6l-1.2-0.8l-5.4,7.6l1.8,1.8
	l-15.6,7.8v0.4c-0.4,7-1.1,14.8-4.8,18.6l-0.5,0.5l1.1,1.1l0,0l1,1l0,0l1,1l0.5-0.5c3.7-3.7,11.2-4.4,18.6-4.8L-361.8,264.8z
	 M-380.9,267.8l9.8-9.8c0.8,0.3,1.7,0.2,2.4-0.4c0.8-0.8,0.8-2.2,0-3c-0.8-0.8-2.2-0.8-3,0c-0.7,0.7-0.8,1.7-0.4,2.5l-10.1,10.1
	l-0.1-0.1c3.6-4.3,4.3-11.8,4.7-18.6l15.3-7.6l7.3,7.3l-7.7,15.3C-369.7,263.8-376.8,264.5-380.9,267.8z"/>
</svg>
