<?xml version="1.0" encoding="utf-8"?>
<!-- Generator: Adobe Illustrator 19.0.0, SVG Export Plug-In . SVG Version: 6.00 Build 0)  -->
<svg version="1.1" id="Layer_1" xmlns="http://www.w3.org/2000/svg" xmlns:xlink="http://www.w3.org/1999/xlink" x="0px" y="0px"
	 viewBox="0 0 98.4 101.6" style="enable-background:new 0 0 98.4 101.6;" xml:space="preserve">
<style type="text/css">
	.st0{fill:#DDDFE6;}
</style>
<g>
	<g>
		<path class="st0" d="M5.5,25.8c1.3,0,2.4-1.1,2.4-2.4c0-1.3-1.1-2.4-2.4-2.4c-1.3,0-2.4,1.1-2.4,2.4C3.1,24.8,4.2,25.8,5.5,25.8z
			 M5.5,22.1c0.8,0,1.4,0.6,1.4,1.4c0,0.8-0.6,1.4-1.4,1.4s-1.4-0.6-1.4-1.4S4.7,22.1,5.5,22.1z"/>
		<path class="st0" d="M11.2,25.8c1.3,0,2.4-1.1,2.4-2.4c0-1.3-1.1-2.4-2.4-2.4c-1.3,0-2.4,1.1-2.4,2.4C8.8,24.8,9.9,25.8,11.2,25.8
			z M11.2,22.1c0.8,0,1.4,0.6,1.4,1.4c0,0.8-0.6,1.4-1.4,1.4c-0.8,0-1.4-0.6-1.4-1.4S10.4,22.1,11.2,22.1z"/>
		<path class="st0" d="M16.9,25.8c1.3,0,2.4-1.1,2.4-2.4c0-1.3-1.1-2.4-2.4-2.4s-2.4,1.1-2.4,2.4C14.5,24.8,15.6,25.8,16.9,25.8z
			 M16.9,22.1c0.8,0,1.4,0.6,1.4,1.4c0,0.8-0.6,1.4-1.4,1.4s-1.4-0.6-1.4-1.4S16.1,22.1,16.9,22.1z"/>
		<path class="st0" d="M26.5,87.4H7.8c-0.3,0-0.5,0.2-0.5,0.5c0,0.3,0.2,0.5,0.5,0.5h18.7c0.3,0,0.5-0.2,0.5-0.5
			C27,87.6,26.8,87.4,26.5,87.4z"/>
		<path class="st0" d="M26.5,89.9H7.8c-0.3,0-0.5,0.2-0.5,0.5c0,0.3,0.2,0.5,0.5,0.5h18.7c0.3,0,0.5-0.2,0.5-0.5
			C27,90.1,26.8,89.9,26.5,89.9z"/>
		<path class="st0" d="M26.5,92.4H7.8c-0.3,0-0.5,0.2-0.5,0.5c0,0.3,0.2,0.5,0.5,0.5h18.7c0.3,0,0.5-0.2,0.5-0.5
			C27,92.6,26.8,92.4,26.5,92.4z"/>
		<path class="st0" d="M26.5,94.9H7.8c-0.3,0-0.5,0.2-0.5,0.5c0,0.3,0.2,0.5,0.5,0.5h18.7c0.3,0,0.5-0.2,0.5-0.5
			C27,95.1,26.8,94.9,26.5,94.9z"/>
		<path class="st0" d="M52.7,87.4H34c-0.3,0-0.5,0.2-0.5,0.5c0,0.3,0.2,0.5,0.5,0.5h18.7c0.3,0,0.5-0.2,0.5-0.5
			C53.2,87.6,53,87.4,52.7,87.4z"/>
		<path class="st0" d="M52.7,89.9H34c-0.3,0-0.5,0.2-0.5,0.5c0,0.3,0.2,0.5,0.5,0.5h18.7c0.3,0,0.5-0.2,0.5-0.5
			C53.2,90.1,53,89.9,52.7,89.9z"/>
		<path class="st0" d="M52.7,92.4H34c-0.3,0-0.5,0.2-0.5,0.5c0,0.3,0.2,0.5,0.5,0.5h18.7c0.3,0,0.5-0.2,0.5-0.5
			C53.2,92.6,53,92.4,52.7,92.4z"/>
		<path class="st0" d="M52.7,94.9H34c-0.3,0-0.5,0.2-0.5,0.5c0,0.3,0.2,0.5,0.5,0.5h18.7c0.3,0,0.5-0.2,0.5-0.5
			C53.2,95.1,53,94.9,52.7,94.9z"/>
		<path class="st0" d="M78.5,87.4H59.8c-0.3,0-0.5,0.2-0.5,0.5c0,0.3,0.2,0.5,0.5,0.5h18.7c0.3,0,0.5-0.2,0.5-0.5
			C79,87.6,78.8,87.4,78.5,87.4z"/>
		<path class="st0" d="M78.5,89.9H59.8c-0.3,0-0.5,0.2-0.5,0.5c0,0.3,0.2,0.5,0.5,0.5h18.7c0.3,0,0.5-0.2,0.5-0.5
			C79,90.1,78.8,89.9,78.5,89.9z"/>
		<path class="st0" d="M78.5,92.4H59.8c-0.3,0-0.5,0.2-0.5,0.5c0,0.3,0.2,0.5,0.5,0.5h18.7c0.3,0,0.5-0.2,0.5-0.5
			C79,92.6,78.8,92.4,78.5,92.4z"/>
		<path class="st0" d="M78.5,94.9H59.8c-0.3,0-0.5,0.2-0.5,0.5c0,0.3,0.2,0.5,0.5,0.5h18.7c0.3,0,0.5-0.2,0.5-0.5
			C79,95.1,78.8,94.9,78.5,94.9z"/>
		<path class="st0" d="M86,48.8V28.2v-9.4H0.2v9.4v20.5c0,0.1-0.2,0.2-0.2,0.4c0,0.2,0.2,0.3,0.2,0.4v52.1H86V49.3
			c0-0.1,0.1-0.2,0.1-0.2L86,48.8z M85,100.5H1.2v-51h32c0.4,5.1,4.7,9.2,10,9.2s9.6-4.1,10-9.2H85V100.5z M43.2,50.2
			c3,0,5.6,2.2,6.2,5.1c-1.6,1.5-3.8,2.4-6.2,2.4s-4.5-0.9-6.2-2.4C37.6,52.4,40.2,50.2,43.2,50.2z M40.8,46.5
			c0-1.4,1.1-2.4,2.4-2.4c1.4,0,2.4,1.1,2.4,2.4s-1.1,2.4-2.4,2.4S40.8,47.8,40.8,46.5z M45,49.5c1-0.6,1.6-1.7,1.6-2.9
			c0-1.9-1.6-3.4-3.4-3.4c-1.9,0-3.4,1.6-3.4,3.4c0,1.3,0.7,2.3,1.6,2.9c-2.5,0.7-4.4,2.5-5.1,5c-1.3-1.6-2.1-3.6-2.1-5.8
			c0-5,4-9,9-9s9,4,9,9c0,2.2-0.8,4.2-2.1,5.8C49.5,52,47.5,50.1,45,49.5z M85,48.5H53.2c-0.1-5.5-4.5-9.9-10-9.9s-9.9,4.4-10,9.9
			h-32V28.3H85V48.5z M85,27.3H1.2v-7.6H85V27.3z"/>
		<path class="st0" d="M6.8,83.3H27V63.1H6.8V83.3z M7.8,64.1H26v18.2H7.8V64.1z"/>
		<path class="st0" d="M33,83.3h20.2V63.1H33V83.3z M34,64.1h18.2v18.2H34V64.1z"/>
		<path class="st0" d="M78.9,63.1H58.7v20.2h20.2C78.9,83.3,78.9,63.1,78.9,63.1z M77.9,82.3H59.7V64.1h18.2V82.3z"/>
	</g>
	<path class="st0" d="M81.2,34.4L89,18.8l1.8,1.8l7.6-5.5l-0.8-1.2l-6.7,4.8L79.7,7.4l4.7-6.6L83.2,0l-5.4,7.6l1.8,1.8L64,17.2v0.4
		c-0.4,7-1.1,14.8-4.8,18.6l-0.5,0.5l1.1,1.1l0,0l1,1l0,0l1,1l0.5-0.5c3.7-3.7,11.2-4.4,18.6-4.8L81.2,34.4z M62.1,37.4l9.8-9.8
		c0.8,0.3,1.7,0.2,2.4-0.4c0.8-0.8,0.8-2.2,0-3s-2.2-0.8-3,0c-0.7,0.7-0.8,1.7-0.4,2.5L60.8,36.8l-0.1-0.1
		c3.6-4.3,4.3-11.8,4.7-18.6l15.3-7.6l7.3,7.3l-7.7,15.3C73.3,33.4,66.2,34.1,62.1,37.4z"/>
</g>
</svg>
