<?xml version="1.0" encoding="UTF-8" standalone="no"?>
<!-- Generator: Adobe Illustrator 19.0.0, SVG Export Plug-In . SVG Version: 6.00 Build 0)  -->

<svg
   xmlns:dc="http://purl.org/dc/elements/1.1/"
   xmlns:cc="http://creativecommons.org/ns#"
   xmlns:rdf="http://www.w3.org/1999/02/22-rdf-syntax-ns#"
   xmlns:svg="http://www.w3.org/2000/svg"
   xmlns="http://www.w3.org/2000/svg"
   xmlns:sodipodi="http://sodipodi.sourceforge.net/DTD/sodipodi-0.dtd"
   xmlns:inkscape="http://www.inkscape.org/namespaces/inkscape"
   version="1.1"
   id="Layer_1"
   x="0px"
   y="0px"
   viewBox="-430 230.4 86.1 83"
   xml:space="preserve"
   inkscape:version="0.48.5 r10040"
   width="100%"
   height="100%"
   sodipodi:docname="web-design.svg"><metadata
     id="metadata51"><rdf:RDF><cc:Work
         rdf:about=""><dc:format>image/svg+xml</dc:format><dc:type
           rdf:resource="http://purl.org/dc/dcmitype/StillImage" /></cc:Work></rdf:RDF></metadata><defs
     id="defs49" /><sodipodi:namedview
     pagecolor="#ffffff"
     bordercolor="#666666"
     borderopacity="1"
     objecttolerance="10"
     gridtolerance="10"
     guidetolerance="10"
     inkscape:pageopacity="0"
     inkscape:pageshadow="2"
     inkscape:window-width="1366"
     inkscape:window-height="702"
     id="namedview47"
     showgrid="false"
     inkscape:zoom="4.6456693"
     inkscape:cx="48.808335"
     inkscape:cy="1.6849155"
     inkscape:window-x="0"
     inkscape:window-y="27"
     inkscape:window-maximized="1"
     inkscape:current-layer="Layer_1" /><style
     type="text/css"
     id="style3">
	.st0{fill:#DDDFE6;}
</style><g
     id="g5"
     transform="translate(0,-18.6)"><path
       class="st0"
       d="m -424.5,256.2 c 1.3,0 2.4,-1.1 2.4,-2.4 0,-1.3 -1.1,-2.4 -2.4,-2.4 -1.3,0 -2.4,1.1 -2.4,2.4 0,1.4 1.1,2.4 2.4,2.4 z m 0,-3.7 c 0.8,0 1.4,0.6 1.4,1.4 0,0.8 -0.6,1.4 -1.4,1.4 -0.8,0 -1.4,-0.6 -1.4,-1.4 0,-0.8 0.6,-1.4 1.4,-1.4 z"
       id="path7"
       inkscape:connector-curvature="0"
       style="fill:#dddfe6" /><path
       class="st0"
       d="m -418.8,256.2 c 1.3,0 2.4,-1.1 2.4,-2.4 0,-1.3 -1.1,-2.4 -2.4,-2.4 -1.3,0 -2.4,1.1 -2.4,2.4 0,1.4 1.1,2.4 2.4,2.4 z m 0,-3.7 c 0.8,0 1.4,0.6 1.4,1.4 0,0.8 -0.6,1.4 -1.4,1.4 -0.8,0 -1.4,-0.6 -1.4,-1.4 0,-0.8 0.6,-1.4 1.4,-1.4 z"
       id="path9"
       inkscape:connector-curvature="0"
       style="fill:#dddfe6" /><path
       class="st0"
       d="m -413.1,256.2 c 1.3,0 2.4,-1.1 2.4,-2.4 0,-1.3 -1.1,-2.4 -2.4,-2.4 -1.3,0 -2.4,1.1 -2.4,2.4 0,1.4 1.1,2.4 2.4,2.4 z m 0,-3.7 c 0.8,0 1.4,0.6 1.4,1.4 0,0.8 -0.6,1.4 -1.4,1.4 -0.8,0 -1.4,-0.6 -1.4,-1.4 0,-0.8 0.6,-1.4 1.4,-1.4 z"
       id="path11"
       inkscape:connector-curvature="0"
       style="fill:#dddfe6" /><path
       class="st0"
       d="m -403.5,317.8 h -18.7 c -0.3,0 -0.5,0.2 -0.5,0.5 0,0.3 0.2,0.5 0.5,0.5 h 18.7 c 0.3,0 0.5,-0.2 0.5,-0.5 0,-0.3 -0.2,-0.5 -0.5,-0.5 z"
       id="path13"
       inkscape:connector-curvature="0"
       style="fill:#dddfe6" /><path
       class="st0"
       d="m -403.5,320.3 h -18.7 c -0.3,0 -0.5,0.2 -0.5,0.5 0,0.3 0.2,0.5 0.5,0.5 h 18.7 c 0.3,0 0.5,-0.2 0.5,-0.5 0,-0.3 -0.2,-0.5 -0.5,-0.5 z"
       id="path15"
       inkscape:connector-curvature="0"
       style="fill:#dddfe6" /><path
       class="st0"
       d="m -403.5,322.8 h -18.7 c -0.3,0 -0.5,0.2 -0.5,0.5 0,0.3 0.2,0.5 0.5,0.5 h 18.7 c 0.3,0 0.5,-0.2 0.5,-0.5 0,-0.3 -0.2,-0.5 -0.5,-0.5 z"
       id="path17"
       inkscape:connector-curvature="0"
       style="fill:#dddfe6" /><path
       class="st0"
       d="m -403.5,325.3 h -18.7 c -0.3,0 -0.5,0.2 -0.5,0.5 0,0.3 0.2,0.5 0.5,0.5 h 18.7 c 0.3,0 0.5,-0.2 0.5,-0.5 0,-0.3 -0.2,-0.5 -0.5,-0.5 z"
       id="path19"
       inkscape:connector-curvature="0"
       style="fill:#dddfe6" /><path
       class="st0"
       d="M -377.3,317.8 H -396 c -0.3,0 -0.5,0.2 -0.5,0.5 0,0.3 0.2,0.5 0.5,0.5 h 18.7 c 0.3,0 0.5,-0.2 0.5,-0.5 0,-0.3 -0.2,-0.5 -0.5,-0.5 z"
       id="path21"
       inkscape:connector-curvature="0"
       style="fill:#dddfe6" /><path
       class="st0"
       d="M -377.3,320.3 H -396 c -0.3,0 -0.5,0.2 -0.5,0.5 0,0.3 0.2,0.5 0.5,0.5 h 18.7 c 0.3,0 0.5,-0.2 0.5,-0.5 0,-0.3 -0.2,-0.5 -0.5,-0.5 z"
       id="path23"
       inkscape:connector-curvature="0"
       style="fill:#dddfe6" /><path
       class="st0"
       d="M -377.3,322.8 H -396 c -0.3,0 -0.5,0.2 -0.5,0.5 0,0.3 0.2,0.5 0.5,0.5 h 18.7 c 0.3,0 0.5,-0.2 0.5,-0.5 0,-0.3 -0.2,-0.5 -0.5,-0.5 z"
       id="path25"
       inkscape:connector-curvature="0"
       style="fill:#dddfe6" /><path
       class="st0"
       d="M -377.3,325.3 H -396 c -0.3,0 -0.5,0.2 -0.5,0.5 0,0.3 0.2,0.5 0.5,0.5 h 18.7 c 0.3,0 0.5,-0.2 0.5,-0.5 0,-0.3 -0.2,-0.5 -0.5,-0.5 z"
       id="path27"
       inkscape:connector-curvature="0"
       style="fill:#dddfe6" /><path
       class="st0"
       d="m -351.5,317.8 h -18.7 c -0.3,0 -0.5,0.2 -0.5,0.5 0,0.3 0.2,0.5 0.5,0.5 h 18.7 c 0.3,0 0.5,-0.2 0.5,-0.5 0,-0.3 -0.2,-0.5 -0.5,-0.5 z"
       id="path29"
       inkscape:connector-curvature="0"
       style="fill:#dddfe6" /><path
       class="st0"
       d="m -351.5,320.3 h -18.7 c -0.3,0 -0.5,0.2 -0.5,0.5 0,0.3 0.2,0.5 0.5,0.5 h 18.7 c 0.3,0 0.5,-0.2 0.5,-0.5 0,-0.3 -0.2,-0.5 -0.5,-0.5 z"
       id="path31"
       inkscape:connector-curvature="0"
       style="fill:#dddfe6" /><path
       class="st0"
       d="m -351.5,322.8 h -18.7 c -0.3,0 -0.5,0.2 -0.5,0.5 0,0.3 0.2,0.5 0.5,0.5 h 18.7 c 0.3,0 0.5,-0.2 0.5,-0.5 0,-0.3 -0.2,-0.5 -0.5,-0.5 z"
       id="path33"
       inkscape:connector-curvature="0"
       style="fill:#dddfe6" /><path
       class="st0"
       d="m -351.5,325.3 h -18.7 c -0.3,0 -0.5,0.2 -0.5,0.5 0,0.3 0.2,0.5 0.5,0.5 h 18.7 c 0.3,0 0.5,-0.2 0.5,-0.5 0,-0.3 -0.2,-0.5 -0.5,-0.5 z"
       id="path35"
       inkscape:connector-curvature="0"
       style="fill:#dddfe6" /><path
       class="st0"
       d="m -344,279.2 v -20.6 -9.4 h -85.8 v 9.4 20.5 c 0,0.1 -0.2,0.2 -0.2,0.4 0,0.2 0.2,0.3 0.2,0.4 V 332 h 85.8 v -52.3 c 0,-0.1 0.1,-0.2 0.1,-0.2 l -0.1,-0.3 z m -1,51.7 h -83.8 v -51 h 32 c 0.4,5.1 4.7,9.2 10,9.2 5.3,0 9.6,-4.1 10,-9.2 h 31.8 v 51 z m -41.8,-50.3 c 3,0 5.6,2.2 6.2,5.1 -1.6,1.5 -3.8,2.4 -6.2,2.4 -2.4,0 -4.5,-0.9 -6.2,-2.4 0.6,-2.9 3.2,-5.1 6.2,-5.1 z m -2.4,-3.7 c 0,-1.4 1.1,-2.4 2.4,-2.4 1.4,0 2.4,1.1 2.4,2.4 0,1.3 -1.1,2.4 -2.4,2.4 -1.3,0 -2.4,-1.1 -2.4,-2.4 z m 4.2,3 c 1,-0.6 1.6,-1.7 1.6,-2.9 0,-1.9 -1.6,-3.4 -3.4,-3.4 -1.9,0 -3.4,1.6 -3.4,3.4 0,1.3 0.7,2.3 1.6,2.9 -2.5,0.7 -4.4,2.5 -5.1,5 -1.3,-1.6 -2.1,-3.6 -2.1,-5.8 0,-5 4,-9 9,-9 5,0 9,4 9,9 0,2.2 -0.8,4.2 -2.1,5.8 -0.6,-2.5 -2.6,-4.4 -5.1,-5 z m 40,-1 h -31.8 c -0.1,-5.5 -4.5,-9.9 -10,-9.9 -5.5,0 -9.9,4.4 -10,9.9 h -32 v -20.2 h 83.8 v 20.2 z m 0,-21.2 h -83.8 v -7.6 h 83.8 v 7.6 z"
       id="path37"
       inkscape:connector-curvature="0"
       style="fill:#dddfe6" /><path
       class="st0"
       d="m -423.2,313.7 h 20.2 v -20.2 h -20.2 v 20.2 z m 1,-19.2 h 18.2 v 18.2 h -18.2 v -18.2 z"
       id="path39"
       inkscape:connector-curvature="0"
       style="fill:#dddfe6" /><path
       class="st0"
       d="m -397,313.7 h 20.2 V 293.5 H -397 v 20.2 z m 1,-19.2 h 18.2 v 18.2 H -396 v -18.2 z"
       id="path41"
       inkscape:connector-curvature="0"
       style="fill:#dddfe6" /><path
       class="st0"
       d="m -351.1,293.5 h -20.2 v 20.2 h 20.2 v -20.2 z m -1,19.2 h -18.2 v -18.2 h 18.2 v 18.2 z"
       id="path43"
       inkscape:connector-curvature="0"
       style="fill:#dddfe6" /></g></svg>