<?xml version="1.0" standalone="no"?>
<!DOCTYPE svg PUBLIC "-//W3C//DTD SVG 20010904//EN"
 "http://www.w3.org/TR/2001/REC-SVG-20010904/DTD/svg10.dtd">
<svg version="1.0" xmlns="http://www.w3.org/2000/svg"
 width="303.000000pt" height="303.000000pt" viewBox="0 0 303.000000 303.000000"
 preserveAspectRatio="xMidYMid meet">
<metadata>
Created by potrace 1.11, written by Peter Selinger 2001-2013
</metadata>
<g transform="translate(0.000000,303.000000) scale(0.100000,-0.100000)"
fill="#000000" stroke="none">
<path d="M1595 3022 c-228 -22 -472 -95 -622 -187 -24 -14 -43 -22 -43 -16 0
5 5 13 10 16 19 12 10 54 -15 71 -61 40 -194 -15 -309 -128 -35 -34 -40 -36
-51 -21 -10 13 -24 15 -72 11 -123 -12 -238 -99 -302 -231 -56 -114 -48 -138
49 -154 l55 -9 -44 -29 c-108 -73 -115 -93 -56 -151 108 -105 225 -368 285
-642 11 -48 20 -90 20 -93 0 -3 -30 -9 -67 -12 -151 -14 -197 -46 -195 -134 2
-67 26 -190 59 -297 30 -98 61 -139 114 -150 40 -8 129 -7 195 3 l51 7 41
-143 c65 -226 66 -227 195 -330 156 -125 354 -263 376 -263 5 0 11 -3 13 -8 5
-13 149 -84 217 -108 117 -41 190 -22 353 92 46 31 85 60 88 63 3 3 39 35 80
70 98 84 288 275 328 329 28 39 57 108 66 158 2 10 9 51 16 90 l13 72 98 -2
c85 -1 101 2 126 20 42 31 83 127 98 230 4 21 8 50 11 64 2 14 4 60 5 103 1
136 -42 184 -175 196 l-73 6 27 115 c59 249 134 509 191 658 42 109 102 237
117 246 18 11 0 57 -26 67 -33 13 -76 5 -193 -34 l-97 -32 79 151 c43 83 79
163 79 176 0 29 -38 51 -73 43 -12 -2 -35 -6 -52 -9 -27 -4 -191 -30 -255 -41
-14 -2 -43 -7 -65 -10 -22 -3 -66 -11 -98 -16 -32 -6 -70 -12 -85 -14 -63 -9
-108 -16 -119 -20 -28 -9 -10 16 52 73 87 80 89 121 5 136 -91 16 -339 27
-425 18z m312 -106 c3 -3 -14 -26 -38 -51 -81 -87 -103 -141 -69 -175 11 -11
27 -18 37 -16 10 2 40 7 66 10 27 4 57 9 67 11 9 2 35 6 56 9 22 4 64 11 94
16 30 5 75 12 100 15 25 3 52 7 60 10 8 2 35 7 60 10 25 3 70 10 100 15 30 5
72 12 93 16 l39 6 -63 -118 c-34 -65 -77 -143 -96 -174 -40 -66 -41 -84 -8
-106 24 -15 28 -15 92 11 105 42 214 77 220 71 3 -3 1 -11 -4 -18 -27 -35
-124 -319 -183 -534 l-33 -120 -171 -176 c-171 -175 -172 -176 -183 -150 -6
15 -28 72 -48 127 -43 115 -62 140 -97 132 -25 -7 -59 -72 -211 -399 -22 -49
-43 -88 -46 -88 -9 0 -132 209 -184 312 -53 106 -63 118 -90 113 -43 -9 -46
-22 -53 -230 -4 -110 -7 -212 -7 -227 0 -16 -2 -28 -3 -28 -4 0 -376 470 -423
533 -35 47 -47 57 -72 57 -41 0 -52 -31 -39 -118 5 -37 12 -94 15 -127 4 -33
8 -70 10 -83 4 -26 5 -26 -151 103 -34 27 -93 76 -131 108 -70 57 -71 59 -103
155 -42 129 -119 288 -175 367 l-45 63 34 21 c59 37 106 97 106 136 0 43 -24
61 -95 70 -27 3 -51 8 -54 10 -5 6 55 97 76 115 31 26 90 60 104 60 9 0 15
-12 15 -31 2 -35 20 -57 51 -63 16 -3 37 11 80 56 86 89 131 131 166 153 31
19 31 19 23 0 -4 -11 -10 -44 -12 -72 -3 -48 -1 -54 22 -70 30 -19 32 -18 128
55 105 80 305 168 456 201 82 18 104 21 180 27 41 4 76 7 77 8 5 5 256 -4 260
-8z m514 -1398 c-6 -29 -13 -80 -16 -113 -4 -33 -8 -71 -10 -85 -2 -14 -6 -50
-10 -80 -3 -30 -8 -66 -10 -80 -2 -14 -7 -50 -10 -80 -4 -30 -8 -66 -10 -80
-2 -14 -7 -45 -10 -70 -18 -135 -45 -239 -73 -281 -51 -79 -296 -312 -442
-423 -150 -113 -214 -138 -293 -110 -62 22 -190 90 -284 150 -107 68 -338 242
-375 281 -19 20 -38 66 -68 168 -22 77 -45 154 -50 170 -20 67 -160 639 -158
646 2 4 79 -56 173 -132 101 -83 178 -139 191 -139 48 0 51 21 28 230 -3 33
-2 51 3 45 5 -5 52 -64 104 -130 136 -173 311 -389 324 -397 16 -12 52 -9 64
5 11 14 18 120 22 307 2 111 -9 119 116 -87 47 -78 93 -143 102 -146 42 -11
57 11 160 229 56 121 106 223 110 227 5 4 25 -36 45 -90 21 -54 44 -108 52
-120 28 -44 53 -30 194 112 73 74 135 133 138 131 2 -3 -1 -28 -7 -58z m239
-125 c17 -12 20 -26 20 -82 0 -77 -23 -214 -46 -271 -17 -42 -29 -48 -89 -45
-96 5 -88 -1 -81 58 4 28 8 73 11 100 3 26 7 60 9 75 9 56 19 138 18 154 0 9
7 19 16 21 34 10 123 3 142 -10z m-2075 -231 c26 -101 45 -186 42 -188 -3 -3
-47 -8 -99 -11 -72 -4 -96 -2 -104 8 -11 14 -52 134 -60 174 -2 11 -6 31 -10
45 -3 14 -8 50 -11 81 -6 66 -7 65 99 75 40 3 75 8 77 10 11 10 23 -23 66
-194z"/>
<path d="M2514 1074 c-10 -38 17 -61 51 -46 29 13 35 56 9 66 -33 13 -54 6
-60 -20z"/>
</g>
</svg>
