<?xml version="1.0" standalone="no"?>
<!DOCTYPE svg PUBLIC "-//W3C//DTD SVG 20010904//EN"
 "http://www.w3.org/TR/2001/REC-SVG-20010904/DTD/svg10.dtd">
<svg version="1.0" xmlns="http://www.w3.org/2000/svg"
 width="374.000000pt" height="374.000000pt" viewBox="0 0 374.000000 374.000000"
 preserveAspectRatio="xMidYMid meet">
<metadata>
Created by potrace 1.11, written by Peter Selinger 2001-2013
</metadata>
<g transform="translate(0.000000,374.000000) scale(0.100000,-0.100000)"
fill="#000000" stroke="none">
<path d="M1856 3720 c-135 -22 -308 -84 -386 -140 l-30 -22 16 36 c45 93 -68
81 -184 -20 -47 -41 -53 -44 -67 -30 -32 31 -128 -7 -189 -75 -44 -47 -79
-120 -70 -142 3 -10 26 -19 57 -24 l52 -9 -52 -34 c-29 -19 -55 -41 -57 -47
-3 -7 13 -33 35 -59 77 -90 168 -311 194 -475 l6 -36 -63 -7 c-63 -8 -97 -20
-110 -40 -19 -27 -4 -138 34 -254 28 -87 45 -96 157 -89 l88 6 12 -42 c68
-234 66 -229 200 -327 33 -24 61 -52 61 -61 0 -10 3 -25 6 -34 6 -15 4 -15
-32 1 -82 35 -164 56 -198 50 -32 -6 -85 -50 -133 -108 -22 -27 -23 -27 -64
-13 -78 28 -198 45 -230 33 -13 -5 -35 -19 -48 -31 -39 -37 -160 -212 -202
-293 -40 -78 -43 -107 -12 -129 11 -9 9 -23 -17 -85 -80 -194 -121 -371 -90
-390 24 -15 50 8 50 43 0 74 111 393 134 383 92 -41 263 -108 437 -171 l216
-79 -1 -331 c0 -399 2 -435 22 -457 20 -23 55 -23 75 0 22 24 21 51 0 82 -16
23 -18 56 -18 342 0 174 3 320 7 323 3 3 37 -9 75 -29 63 -31 72 -40 101 -94
18 -33 33 -73 33 -88 2 -46 9 -64 25 -64 38 0 37 76 -2 156 -52 109 -74 123
-374 234 -107 39 -204 75 -215 80 -11 4 -76 29 -145 55 -160 61 -270 114 -278
133 -6 18 30 86 110 203 85 125 120 159 167 159 59 0 191 -38 256 -75 82 -46
260 -172 319 -228 60 -55 86 -65 86 -32 0 37 -163 174 -327 275 -29 17 -53 36
-53 41 0 16 74 91 99 101 30 11 128 -18 205 -60 47 -26 51 -32 106 -153 83
-184 206 -360 278 -398 21 -11 27 -9 57 23 74 79 269 422 281 493 l7 43 100
31 c55 17 114 33 132 36 30 5 34 3 45 -32 21 -63 43 -64 157 -6 55 28 110 51
122 51 12 0 39 -11 60 -24 48 -31 154 -129 183 -169 l22 -30 -35 -29 c-123
-104 -627 -405 -734 -438 -115 -36 -322 -204 -299 -242 12 -19 42 -4 89 43 62
63 84 76 96 58 13 -21 39 -108 47 -159 12 -75 7 -359 -7 -455 -20 -138 -50
-267 -64 -284 -14 -17 -15 -25 -3 -58 6 -18 15 -23 40 -23 38 0 57 17 58 52 0
13 6 55 14 93 18 91 23 120 30 175 3 25 8 56 11 70 10 47 12 375 2 435 -5 33
-21 95 -34 138 -14 43 -25 80 -25 82 0 2 26 13 58 25 134 50 388 196 649 371
l72 48 15 -67 c8 -37 17 -83 20 -102 3 -19 8 -46 10 -60 3 -14 10 -61 16 -105
7 -44 13 -87 15 -95 10 -52 18 -163 20 -274 1 -111 4 -131 19 -140 13 -9 20
-7 31 7 10 14 13 53 10 163 -2 80 -6 157 -9 172 -3 15 -8 47 -10 72 -3 25 -12
90 -22 145 -9 55 -18 114 -21 130 -2 17 -13 68 -23 114 -15 72 -16 87 -4 99
34 34 5 94 -89 183 -89 85 -157 129 -201 131 -26 1 -65 -13 -132 -47 -78 -39
-97 -46 -105 -34 -5 8 -9 19 -9 25 0 6 -9 19 -20 29 -26 23 -92 16 -210 -24
-47 -15 -86 -28 -87 -27 -1 1 -4 15 -6 31 -3 26 8 42 95 134 104 110 110 122
138 261 l11 56 75 -1 c68 0 78 2 95 23 39 49 70 223 55 307 -9 47 -53 75 -118
75 -27 0 -48 4 -48 8 0 5 18 82 40 171 48 193 108 379 157 479 54 111 39 122
-108 74 l-85 -28 58 111 c59 113 67 139 46 148 -7 2 -51 -2 -98 -9 -47 -8
-105 -16 -130 -20 -25 -3 -52 -7 -60 -9 -8 -3 -33 -7 -55 -10 -22 -3 -49 -8
-61 -10 -11 -2 -45 -7 -75 -10 l-54 -6 51 48 c62 60 70 79 43 94 -27 14 -307
21 -383 9z m296 -48 c16 -4 12 -12 -26 -51 -73 -79 -72 -127 2 -111 20 5 60
11 87 14 28 4 75 11 105 16 30 5 71 12 90 15 19 3 73 12 120 19 47 8 86 13 88
11 1 -1 -13 -30 -33 -65 -19 -34 -35 -64 -35 -67 0 -3 -13 -28 -30 -55 -32
-51 -38 -83 -17 -91 6 -2 50 11 97 29 76 30 120 41 120 30 0 -2 -11 -28 -24
-58 -24 -54 -103 -295 -112 -340 -2 -13 -7 -35 -11 -50 -10 -32 -252 -283
-263 -271 -4 4 -20 43 -35 86 -46 129 -64 132 -114 23 -104 -228 -125 -267
-137 -254 -16 17 -103 169 -134 235 -19 40 -30 53 -47 53 -13 0 -23 -6 -23
-12 -1 -7 -3 -83 -6 -168 -3 -85 -7 -157 -9 -158 -5 -6 -325 398 -325 409 0 6
-10 9 -22 7 -18 -2 -23 -9 -22 -33 1 -46 15 -167 21 -194 8 -32 1 -28 -145 91
l-119 96 -32 94 c-34 97 -95 218 -129 254 l-20 21 44 37 c61 51 70 70 44 96
-12 12 -33 20 -55 20 -40 0 -43 10 -16 54 24 38 64 74 97 86 37 14 41 13 40
-16 -1 -15 6 -31 16 -38 15 -9 28 1 86 59 38 39 84 78 101 88 l31 18 -10 -26
c-13 -34 -13 -92 0 -100 6 -3 47 18 93 48 100 66 206 110 312 131 44 8 89 17
100 19 28 6 235 5 257 -1z m358 -988 c-13 -86 -17 -116 -25 -189 -20 -185 -39
-300 -61 -367 -12 -36 -37 -68 -116 -147 -172 -173 -315 -277 -380 -274 -63 2
-305 145 -459 271 -51 42 -59 55 -80 117 -18 58 -46 157 -63 225 -68 270 -96
385 -96 396 0 8 55 -30 125 -86 68 -55 131 -100 138 -100 17 0 27 22 22 48 -2
10 -6 52 -10 93 l-7 74 32 -40 c17 -22 41 -53 53 -68 12 -15 30 -38 40 -50 10
-12 57 -70 104 -129 85 -106 116 -128 127 -90 3 9 6 79 8 155 1 75 3 137 4
137 1 0 17 -26 34 -57 68 -121 119 -193 138 -193 13 0 28 19 49 68 50 109 125
262 128 262 2 0 15 -35 31 -77 35 -99 45 -111 76 -91 13 9 61 56 108 105 47
49 86 88 88 87 2 -1 -2 -37 -8 -80z m155 -64 c25 -9 26 -13 24 -77 -2 -73 -33
-203 -51 -214 -9 -6 -61 -6 -111 0 -8 1 -3 96 8 150 2 11 6 46 10 78 3 32 12
61 18 65 17 11 71 10 102 -2z m-1426 -166 c23 -98 29 -139 21 -144 -16 -10
-133 -12 -147 -2 -17 11 -53 149 -56 213 -2 52 -1 53 28 59 17 3 50 7 76 8
l45 3 33 -137z m977 -701 c-2 -56 -9 -82 -41 -146 -47 -93 -67 -117 -103 -118
-15 0 -36 -3 -47 -5 -18 -4 -214 -6 -257 -2 -10 1 -31 33 -57 87 -42 89 -94
221 -89 226 2 2 48 -24 103 -56 190 -113 254 -109 421 25 38 31 70 56 70 56 1
0 1 -30 0 -67z m-148 -335 c-74 -119 -115 -178 -124 -178 -19 0 -154 160 -154
183 0 2 30 4 68 3 55 -1 126 3 211 12 11 2 11 -2 -1 -20z"/>
<path d="M2570 2395 c-11 -13 -11 -19 3 -32 21 -21 49 -9 45 19 -4 28 -30 35
-48 13z"/>
</g>
</svg>
